<mxfile host="www.draw.io" modified="2019-12-03T03:31:53.429Z" agent="Mozilla/5.0 (Windows NT 10.0; Win64; x64) AppleWebKit/537.36 (KHTML, like Gecko) Chrome/78.0.3904.108 Safari/537.36" etag="p4QdQq_pT8Q1P4ZneWx0" version="12.3.5" type="github" pages="1">
  <diagram id="6N54T0ZuFAozqggR75nm" name="Page-1">
    <mxGraphModel dx="1408" dy="748" grid="1" gridSize="10" guides="1" tooltips="1" connect="1" arrows="1" fold="1" page="1" pageScale="1" pageWidth="1600" pageHeight="1200" math="0" shadow="0">
      <root>
        <mxCell id="0"/>
        <mxCell id="1" parent="0"/>
        <mxCell id="6QSQMjagxgdEN8BtEcpT-1" value="Data Source: User Search" style="ellipse;whiteSpace=wrap;html=1;aspect=fixed;" vertex="1" parent="1">
          <mxGeometry x="160" y="180" width="150" height="150" as="geometry"/>
        </mxCell>
        <mxCell id="6QSQMjagxgdEN8BtEcpT-2" value="Search String Parser for Qualifiers" style="rounded=0;whiteSpace=wrap;html=1;" vertex="1" parent="1">
          <mxGeometry x="450" y="212.5" width="170" height="85" as="geometry"/>
        </mxCell>
        <mxCell id="6QSQMjagxgdEN8BtEcpT-3" value="initial search value" style="endArrow=classic;html=1;entryX=0;entryY=0.5;entryDx=0;entryDy=0;exitX=1;exitY=0.5;exitDx=0;exitDy=0;" edge="1" parent="1" source="6QSQMjagxgdEN8BtEcpT-1" target="6QSQMjagxgdEN8BtEcpT-2">
          <mxGeometry width="50" height="50" relative="1" as="geometry">
            <mxPoint x="370" y="250" as="sourcePoint"/>
            <mxPoint x="360" y="205" as="targetPoint"/>
          </mxGeometry>
        </mxCell>
        <mxCell id="6QSQMjagxgdEN8BtEcpT-4" value="KWIC Index Adapter" style="rounded=0;whiteSpace=wrap;html=1;" vertex="1" parent="1">
          <mxGeometry x="810" y="212.5" width="200" height="88" as="geometry"/>
        </mxCell>
        <mxCell id="6QSQMjagxgdEN8BtEcpT-5" value="search value w/&lt;br&gt;qualifier filters (AND/OR/etc.)" style="endArrow=classic;html=1;exitX=1;exitY=0.5;exitDx=0;exitDy=0;entryX=0;entryY=0.5;entryDx=0;entryDy=0;" edge="1" parent="1" source="6QSQMjagxgdEN8BtEcpT-2" target="6QSQMjagxgdEN8BtEcpT-4">
          <mxGeometry width="50" height="50" relative="1" as="geometry">
            <mxPoint x="160" y="400" as="sourcePoint"/>
            <mxPoint x="210" y="350" as="targetPoint"/>
          </mxGeometry>
        </mxCell>
        <mxCell id="6QSQMjagxgdEN8BtEcpT-6" value="Result pagination/ formatting" style="rounded=0;whiteSpace=wrap;html=1;" vertex="1" parent="1">
          <mxGeometry x="800" y="360" width="210" height="70" as="geometry"/>
        </mxCell>
        <mxCell id="6QSQMjagxgdEN8BtEcpT-7" value="matching indexes" style="endArrow=classic;html=1;entryX=1.019;entryY=0.614;entryDx=0;entryDy=0;entryPerimeter=0;" edge="1" parent="1" target="6QSQMjagxgdEN8BtEcpT-6">
          <mxGeometry width="50" height="50" relative="1" as="geometry">
            <mxPoint x="1010" y="262.5" as="sourcePoint"/>
            <mxPoint x="1080" y="480" as="targetPoint"/>
            <Array as="points">
              <mxPoint x="1080" y="263"/>
              <mxPoint x="1080" y="403"/>
            </Array>
          </mxGeometry>
        </mxCell>
        <mxCell id="6QSQMjagxgdEN8BtEcpT-9" value="Output: html representation of results for a given page" style="ellipse;whiteSpace=wrap;html=1;aspect=fixed;" vertex="1" parent="1">
          <mxGeometry x="165" y="340" width="140" height="140" as="geometry"/>
        </mxCell>
        <mxCell id="6QSQMjagxgdEN8BtEcpT-10" value="Web UI" style="rounded=0;whiteSpace=wrap;html=1;" vertex="1" parent="1">
          <mxGeometry x="440" y="365" width="120" height="60" as="geometry"/>
        </mxCell>
        <mxCell id="6QSQMjagxgdEN8BtEcpT-11" value="returned results formatted as records" style="endArrow=classic;html=1;exitX=0;exitY=0.5;exitDx=0;exitDy=0;entryX=1;entryY=0.5;entryDx=0;entryDy=0;" edge="1" parent="1" source="6QSQMjagxgdEN8BtEcpT-6" target="6QSQMjagxgdEN8BtEcpT-10">
          <mxGeometry width="50" height="50" relative="1" as="geometry">
            <mxPoint x="160" y="540" as="sourcePoint"/>
            <mxPoint x="644" y="399" as="targetPoint"/>
          </mxGeometry>
        </mxCell>
        <mxCell id="6QSQMjagxgdEN8BtEcpT-12" value="" style="endArrow=classic;html=1;exitX=0;exitY=0.5;exitDx=0;exitDy=0;entryX=0.986;entryY=0.414;entryDx=0;entryDy=0;entryPerimeter=0;" edge="1" parent="1" source="6QSQMjagxgdEN8BtEcpT-10" target="6QSQMjagxgdEN8BtEcpT-9">
          <mxGeometry width="50" height="50" relative="1" as="geometry">
            <mxPoint x="160" y="550" as="sourcePoint"/>
            <mxPoint x="210" y="500" as="targetPoint"/>
          </mxGeometry>
        </mxCell>
      </root>
    </mxGraphModel>
  </diagram>
</mxfile>
